{
	"asset":{
		"generator":"Khronos glTF Blender I/O v4.2.70",
		"version":"2.0"
	},
	"scene":0,
	"scenes":[
		{
			"name":"Scene",
			"nodes":[
				0
			]
		}
	],
	"nodes":[
		{
			"mesh":0,
			"name":"Candle",
			"scale":[
				0.10000002384185791,
				0.10000002384185791,
				0.10000002384185791
			]
		}
	],
	"materials":[
		{
			"doubleSided":true,
			"name":"Candle",
			"pbrMetallicRoughness":{
				"baseColorTexture":{
					"index":0
				},
				"metallicFactor":0,
				"roughnessFactor":0.5
			}
		}
	],
	"meshes":[
		{
			"name":"Candle",
			"primitives":[
				{
					"attributes":{
						"POSITION":0,
						"NORMAL":1,
						"TEXCOORD_0":2
					},
					"indices":3,
					"material":0
				}
			]
		}
	],
	"textures":[
		{
			"sampler":0,
			"source":0
		}
	],
	"images":[
		{
			"mimeType":"image/png",
			"name":"Candle",
			"uri":"Candle.png"
		}
	],
	"accessors":[
		{
			"bufferView":0,
			"componentType":5126,
			"count":217,
			"max":[
				1,
				4.776173114776611,
				1
			],
			"min":[
				-1,
				0,
				-1.3938007354736328
			],
			"type":"VEC3"
		},
		{
			"bufferView":1,
			"componentType":5126,
			"count":217,
			"type":"VEC3"
		},
		{
			"bufferView":2,
			"componentType":5126,
			"count":217,
			"type":"VEC2"
		},
		{
			"bufferView":3,
			"componentType":5123,
			"count":822,
			"type":"SCALAR"
		}
	],
	"bufferViews":[
		{
			"buffer":0,
			"byteLength":2604,
			"byteOffset":0,
			"target":34962
		},
		{
			"buffer":0,
			"byteLength":2604,
			"byteOffset":2604,
			"target":34962
		},
		{
			"buffer":0,
			"byteLength":1736,
			"byteOffset":5208,
			"target":34962
		},
		{
			"buffer":0,
			"byteLength":1644,
			"byteOffset":6944,
			"target":34963
		}
	],
	"samplers":[
		{
			"magFilter":9729,
			"minFilter":9987
		}
	],
	"buffers":[
		{
			"byteLength":8588,
			"uri":"Candle1.bin"
		}
	]
}
