{
	"asset":{
		"generator":"Khronos glTF Blender I/O v4.2.70",
		"version":"2.0"
	},
	"scene":0,
	"scenes":[
		{
			"name":"Scene",
			"nodes":[
				0
			]
		}
	],
	"nodes":[
		{
			"mesh":0,
			"name":"ScribeDesk"
		}
	],
	"materials":[
		{
			"doubleSided":true,
			"name":"Desk",
			"pbrMetallicRoughness":{
				"baseColorTexture":{
					"index":0
				},
				"metallicRoughnessTexture":{
					"index":1
				},
				"roughnessFactor":0.5
			}
		}
	],
	"meshes":[
		{
			"name":"ScribeDesk",
			"primitives":[
				{
					"attributes":{
						"POSITION":0,
						"NORMAL":1,
						"TEXCOORD_0":2
					},
					"indices":3,
					"material":0
				}
			]
		}
	],
	"textures":[
		{
			"sampler":0,
			"source":0
		},
		{
			"sampler":0,
			"source":1
		}
	],
	"images":[
		{
			"mimeType":"image/png",
			"name":"Desk",
			"uri":"Desk.png"
		},
		{
			"mimeType":"image/png",
			"name":"DeskMetallic",
			"uri":"DeskMetallic.png"
		}
	],
	"accessors":[
		{
			"bufferView":0,
			"componentType":5126,
			"count":613,
			"max":[
				1.4948393106460571,
				1.5111274719238281,
				0.7098000049591064
			],
			"min":[
				-1.4948393106460571,
				-0.0024051666259765625,
				-0.7098000049591064
			],
			"type":"VEC3"
		},
		{
			"bufferView":1,
			"componentType":5126,
			"count":613,
			"type":"VEC3"
		},
		{
			"bufferView":2,
			"componentType":5126,
			"count":613,
			"type":"VEC2"
		},
		{
			"bufferView":3,
			"componentType":5123,
			"count":1764,
			"type":"SCALAR"
		}
	],
	"bufferViews":[
		{
			"buffer":0,
			"byteLength":7356,
			"byteOffset":0,
			"target":34962
		},
		{
			"buffer":0,
			"byteLength":7356,
			"byteOffset":7356,
			"target":34962
		},
		{
			"buffer":0,
			"byteLength":4904,
			"byteOffset":14712,
			"target":34962
		},
		{
			"buffer":0,
			"byteLength":3528,
			"byteOffset":19616,
			"target":34963
		}
	],
	"samplers":[
		{
			"magFilter":9729,
			"minFilter":9987
		}
	],
	"buffers":[
		{
			"byteLength":23144,
			"uri":"Desk.bin"
		}
	]
}
