{
	"asset":{
		"generator":"Khronos glTF Blender I/O v4.2.70",
		"version":"2.0"
	},
	"scene":0,
	"scenes":[
		{
			"name":"Scene",
			"nodes":[
				0
			]
		}
	],
	"nodes":[
		{
			"mesh":0,
			"name":"Feather Quill_low",
			"rotation":[
				-0.10157317668199539,
				-0.3325534760951996,
				-0.906725287437439,
				0.23862220346927643
			],
			"translation":[
				0.027593359351158142,
				0.07313267141580582,
				-0.031623475253582
			]
		}
	],
	"materials":[
		{
			"alphaMode":"BLEND",
			"doubleSided":true,
			"name":"Victorian Ink Bottle",
			"normalTexture":{
				"index":0
			},
			"pbrMetallicRoughness":{
				"baseColorTexture":{
					"index":1
				},
				"metallicRoughnessTexture":{
					"index":2
				}
			}
		}
	],
	"meshes":[
		{
			"name":"Cube.109",
			"primitives":[
				{
					"attributes":{
						"POSITION":0,
						"NORMAL":1,
						"TEXCOORD_0":2
					},
					"indices":3,
					"material":0
				}
			]
		}
	],
	"textures":[
		{
			"sampler":0,
			"source":0
		},
		{
			"sampler":0,
			"source":1
		},
		{
			"sampler":0,
			"source":2
		}
	],
	"images":[
		{
			"mimeType":"image/png",
			"name":"Victorian_Ink_Bottle_Normal_Raw",
			"uri":"Victorian_Ink_Bottle_Normal_Raw.png"
		},
		{
			"mimeType":"image/png",
			"name":"Victorian_Ink_Bottle_BaseColor_sRGB-Victorian_Ink_Bottle_Alpha_Raw",
			"uri":"Victorian_Ink_Bottle_BaseColor_sRGB-Victorian_Ink_Bottle_Alpha_Raw.png"
		},
		{
			"mimeType":"image/png",
			"name":"Victorian_Ink_Bottle_Metallic_Raw-Victorian_Ink_Bottle_Roughness_Raw",
			"uri":"Victorian_Ink_Bottle_Metallic_Raw-Victorian_Ink_Bottle_Roughness_Raw.png"
		}
	],
	"accessors":[
		{
			"bufferView":0,
			"componentType":5126,
			"count":893,
			"max":[
				0.08720838278532028,
				0.0824631005525589,
				0.010121867060661316
			],
			"min":[
				-0.07190766930580139,
				-0.05471658706665039,
				-0.054423898458480835
			],
			"type":"VEC3"
		},
		{
			"bufferView":1,
			"componentType":5126,
			"count":893,
			"type":"VEC3"
		},
		{
			"bufferView":2,
			"componentType":5126,
			"count":893,
			"type":"VEC2"
		},
		{
			"bufferView":3,
			"componentType":5123,
			"count":3864,
			"type":"SCALAR"
		}
	],
	"bufferViews":[
		{
			"buffer":0,
			"byteLength":10716,
			"byteOffset":0,
			"target":34962
		},
		{
			"buffer":0,
			"byteLength":10716,
			"byteOffset":10716,
			"target":34962
		},
		{
			"buffer":0,
			"byteLength":7144,
			"byteOffset":21432,
			"target":34962
		},
		{
			"buffer":0,
			"byteLength":7728,
			"byteOffset":28576,
			"target":34963
		}
	],
	"samplers":[
		{
			"magFilter":9729,
			"minFilter":9987
		}
	],
	"buffers":[
		{
			"byteLength":36304,
			"uri":"InkWell.bin"
		}
	]
}
