{
	"asset":{
		"generator":"Khronos glTF Blender I/O v4.2.70",
		"version":"2.0"
	},
	"scene":0,
	"scenes":[
		{
			"name":"Scene",
			"nodes":[
				0
			]
		}
	],
	"nodes":[
		{
			"mesh":0,
			"name":"OpenScroll"
		}
	],
	"materials":[
		{
			"doubleSided":true,
			"name":"Scroll_open",
			"pbrMetallicRoughness":{
				"baseColorTexture":{
					"index":0
				},
				"metallicFactor":0,
				"roughnessFactor":0.8272727131843567
			}
		}
	],
	"meshes":[
		{
			"name":"OpenScroll",
			"primitives":[
				{
					"attributes":{
						"POSITION":0,
						"NORMAL":1,
						"TEXCOORD_0":2
					},
					"indices":3,
					"material":0
				}
			]
		}
	],
	"textures":[
		{
			"sampler":0,
			"source":0
		}
	],
	"images":[
		{
			"mimeType":"image/png",
			"name":"Scroll_open",
			"uri":"Scroll_open.png"
		}
	],
	"accessors":[
		{
			"bufferView":0,
			"componentType":5126,
			"count":604,
			"max":[
				0.4648231863975525,
				0.22521284222602844,
				0.37078699469566345
			],
			"min":[
				-0.4648231863975525,
				0,
				-0.37078699469566345
			],
			"type":"VEC3"
		},
		{
			"bufferView":1,
			"componentType":5126,
			"count":604,
			"type":"VEC3"
		},
		{
			"bufferView":2,
			"componentType":5126,
			"count":604,
			"type":"VEC2"
		},
		{
			"bufferView":3,
			"componentType":5123,
			"count":1824,
			"type":"SCALAR"
		}
	],
	"bufferViews":[
		{
			"buffer":0,
			"byteLength":7248,
			"byteOffset":0,
			"target":34962
		},
		{
			"buffer":0,
			"byteLength":7248,
			"byteOffset":7248,
			"target":34962
		},
		{
			"buffer":0,
			"byteLength":4832,
			"byteOffset":14496,
			"target":34962
		},
		{
			"buffer":0,
			"byteLength":3648,
			"byteOffset":19328,
			"target":34963
		}
	],
	"samplers":[
		{
			"magFilter":9729,
			"minFilter":9987
		}
	],
	"buffers":[
		{
			"byteLength":22976,
			"uri":"Scroll.bin"
		}
	]
}
