{
	"asset":{
		"generator":"Khronos glTF Blender I/O v5.0.21",
		"version":"2.0"
	},
	"scene":0,
	"scenes":[
		{
			"name":"Scene",
			"nodes":[
				0
			]
		}
	],
	"nodes":[
		{
			"mesh":0,
			"name":"B\u00e9zierCurve"
		}
	],
	"materials":[
		{
			"doubleSided":true,
			"name":"Scroll",
			"normalTexture":{
				"index":0
			},
			"pbrMetallicRoughness":{
				"baseColorTexture":{
					"index":1
				},
				"metallicRoughnessTexture":{
					"index":2
				}
			}
		}
	],
	"meshes":[
		{
			"name":"B\u00e9zierCurve",
			"primitives":[
				{
					"attributes":{
						"POSITION":0,
						"NORMAL":1,
						"TEXCOORD_0":2
					},
					"indices":3,
					"material":0
				}
			]
		}
	],
	"textures":[
		{
			"sampler":0,
			"source":0
		},
		{
			"sampler":0,
			"source":1
		},
		{
			"sampler":0,
			"source":2
		}
	],
	"images":[
		{
			"mimeType":"image/png",
			"name":"Scroll_Scroll_Normal",
			"uri":"Scroll_Scroll_Normal.png"
		},
		{
			"mimeType":"image/png",
			"name":"Scroll_Scroll_BaseColor",
			"uri":"Scroll_Scroll_BaseColor.png"
		},
		{
			"mimeType":"image/png",
			"name":"Scroll_Scroll_Metallic-Scroll_Scroll_Roughness",
			"uri":"Scroll_Scroll_Metallic-Scroll_Scroll_Roughness.png"
		}
	],
	"accessors":[
		{
			"bufferView":0,
			"componentType":5126,
			"count":1512,
			"max":[
				0.22131751477718353,
				0.0577765591442585,
				0.033589717000722885
			],
			"min":[
				-0.20532752573490143,
				-0.023620568215847015,
				-0.04266680032014847
			],
			"type":"VEC3"
		},
		{
			"bufferView":1,
			"componentType":5126,
			"count":1512,
			"type":"VEC3"
		},
		{
			"bufferView":2,
			"componentType":5126,
			"count":1512,
			"type":"VEC2"
		},
		{
			"bufferView":3,
			"componentType":5123,
			"count":7488,
			"type":"SCALAR"
		}
	],
	"bufferViews":[
		{
			"buffer":0,
			"byteLength":18144,
			"byteOffset":0,
			"target":34962
		},
		{
			"buffer":0,
			"byteLength":18144,
			"byteOffset":18144,
			"target":34962
		},
		{
			"buffer":0,
			"byteLength":12096,
			"byteOffset":36288,
			"target":34962
		},
		{
			"buffer":0,
			"byteLength":14976,
			"byteOffset":48384,
			"target":34963
		}
	],
	"samplers":[
		{
			"magFilter":9729,
			"minFilter":9987
		}
	],
	"buffers":[
		{
			"byteLength":63360,
			"uri":"Scroll.bin"
		}
	]
}
