{
	"asset":{
		"generator":"Khronos glTF Blender I/O v4.2.70",
		"version":"2.0"
	},
	"scene":0,
	"scenes":[
		{
			"name":"Scene",
			"nodes":[
				0
			]
		}
	],
	"nodes":[
		{
			"mesh":0,
			"name":"Shelf"
		}
	],
	"materials":[
		{
			"doubleSided":true,
			"name":"Shelf",
			"pbrMetallicRoughness":{
				"baseColorFactor":[
					0.800000011920929,
					0.800000011920929,
					0.800000011920929,
					1
				],
				"metallicFactor":0,
				"roughnessFactor":0.5
			}
		}
	],
	"meshes":[
		{
			"name":"Shelf",
			"primitives":[
				{
					"attributes":{
						"POSITION":0,
						"NORMAL":1,
						"TEXCOORD_0":2
					},
					"indices":3,
					"material":0
				}
			]
		}
	],
	"accessors":[
		{
			"bufferView":0,
			"componentType":5126,
			"count":1660,
			"max":[
				2.6000001430511475,
				2.499999761581421,
				0.3499999940395355
			],
			"min":[
				-2.6000001430511475,
				0,
				-0.3499999940395355
			],
			"type":"VEC3"
		},
		{
			"bufferView":1,
			"componentType":5126,
			"count":1660,
			"type":"VEC3"
		},
		{
			"bufferView":2,
			"componentType":5126,
			"count":1660,
			"type":"VEC2"
		},
		{
			"bufferView":3,
			"componentType":5123,
			"count":3168,
			"type":"SCALAR"
		}
	],
	"bufferViews":[
		{
			"buffer":0,
			"byteLength":19920,
			"byteOffset":0,
			"target":34962
		},
		{
			"buffer":0,
			"byteLength":19920,
			"byteOffset":19920,
			"target":34962
		},
		{
			"buffer":0,
			"byteLength":13280,
			"byteOffset":39840,
			"target":34962
		},
		{
			"buffer":0,
			"byteLength":6336,
			"byteOffset":53120,
			"target":34963
		}
	],
	"buffers":[
		{
			"byteLength":59456,
			"uri":"Shelf.bin"
		}
	]
}
