{
	"asset":{
		"generator":"Khronos glTF Blender I/O v5.0.21",
		"version":"2.0"
	},
	"scene":0,
	"scenes":[
		{
			"name":"Scene",
			"nodes":[
				0
			]
		}
	],
	"nodes":[
		{
			"mesh":0,
			"name":"Plane"
		}
	],
	"materials":[
		{
			"doubleSided":true,
			"name":"Frame",
			"pbrMetallicRoughness":{
				"baseColorFactor":[
					0.800000011920929,
					0.800000011920929,
					0.800000011920929,
					1
				],
				"metallicFactor":0,
				"roughnessFactor":0.5
			}
		},
		{
			"doubleSided":true,
			"name":"Plate",
			"pbrMetallicRoughness":{
				"baseColorFactor":[
					0.800000011920929,
					0.800000011920929,
					0.800000011920929,
					1
				],
				"metallicFactor":0,
				"roughnessFactor":0.5
			}
		},
		{
			"doubleSided":true,
			"name":"Scanners",
			"pbrMetallicRoughness":{
				"baseColorFactor":[
					0.800000011920929,
					0.800000011920929,
					0.800000011920929,
					1
				],
				"metallicFactor":0,
				"roughnessFactor":0.5
			}
		},
		{
			"doubleSided":true,
			"name":"Doodads",
			"pbrMetallicRoughness":{
				"baseColorFactor":[
					0.800000011920929,
					0.800000011920929,
					0.800000011920929,
					1
				],
				"metallicFactor":0,
				"roughnessFactor":0.5
			}
		},
		{
			"doubleSided":true,
			"name":"Screen",
			"pbrMetallicRoughness":{
				"baseColorFactor":[
					0.800000011920929,
					0.800000011920929,
					0.800000011920929,
					1
				],
				"metallicFactor":0,
				"roughnessFactor":0.5
			}
		}
	],
	"meshes":[
		{
			"name":"Plane",
			"primitives":[
				{
					"attributes":{
						"POSITION":0,
						"NORMAL":1,
						"TEXCOORD_0":2
					},
					"indices":3,
					"material":0
				},
				{
					"attributes":{
						"POSITION":4,
						"NORMAL":5,
						"TEXCOORD_0":6
					},
					"indices":7,
					"material":1
				},
				{
					"attributes":{
						"POSITION":8,
						"NORMAL":9,
						"TEXCOORD_0":10
					},
					"indices":11,
					"material":2
				},
				{
					"attributes":{
						"POSITION":12,
						"NORMAL":13,
						"TEXCOORD_0":14
					},
					"indices":15,
					"material":3
				},
				{
					"attributes":{
						"POSITION":16,
						"NORMAL":17,
						"TEXCOORD_0":18
					},
					"indices":19,
					"material":4
				}
			]
		}
	],
	"accessors":[
		{
			"bufferView":0,
			"componentType":5126,
			"count":566,
			"max":[
				0.7329370975494385,
				1.978266716003418,
				0.5
			],
			"min":[
				-0.7329370975494385,
				0,
				-0.7999999523162842
			],
			"type":"VEC3"
		},
		{
			"bufferView":1,
			"componentType":5126,
			"count":566,
			"type":"VEC3"
		},
		{
			"bufferView":2,
			"componentType":5126,
			"count":566,
			"type":"VEC2"
		},
		{
			"bufferView":3,
			"componentType":5123,
			"count":1788,
			"type":"SCALAR"
		},
		{
			"bufferView":4,
			"componentType":5126,
			"count":472,
			"max":[
				0.47199997305870056,
				0.24123790860176086,
				0.367499977350235
			],
			"min":[
				-0.5719999670982361,
				0.09770280122756958,
				-0.7925000190734863
			],
			"type":"VEC3"
		},
		{
			"bufferView":5,
			"componentType":5126,
			"count":472,
			"type":"VEC3"
		},
		{
			"bufferView":6,
			"componentType":5126,
			"count":472,
			"type":"VEC2"
		},
		{
			"bufferView":7,
			"componentType":5123,
			"count":1122,
			"type":"SCALAR"
		},
		{
			"bufferView":8,
			"componentType":5126,
			"count":1311,
			"max":[
				0.179342582821846,
				0.8094239234924316,
				0.12011866271495819
			],
			"min":[
				-0.27934253215789795,
				0.4678913652896881,
				-0.33814001083374023
			],
			"type":"VEC3"
		},
		{
			"bufferView":9,
			"componentType":5126,
			"count":1311,
			"type":"VEC3"
		},
		{
			"bufferView":10,
			"componentType":5126,
			"count":1311,
			"type":"VEC2"
		},
		{
			"bufferView":11,
			"componentType":5123,
			"count":4386,
			"type":"SCALAR"
		},
		{
			"bufferView":12,
			"componentType":5126,
			"count":968,
			"max":[
				0.6025291681289673,
				1.5273717641830444,
				0.5102236866950989
			],
			"min":[
				-0.5869322419166565,
				0.023999962955713272,
				-0.33031031489372253
			],
			"type":"VEC3"
		},
		{
			"bufferView":13,
			"componentType":5126,
			"count":968,
			"type":"VEC3"
		},
		{
			"bufferView":14,
			"componentType":5126,
			"count":968,
			"type":"VEC2"
		},
		{
			"bufferView":15,
			"componentType":5123,
			"count":2934,
			"type":"SCALAR"
		},
		{
			"bufferView":16,
			"componentType":5126,
			"count":18,
			"max":[
				0.395070880651474,
				1.8775931596755981,
				-0.1371186524629593
			],
			"min":[
				-0.5986158847808838,
				1.3359647989273071,
				-0.2721186578273773
			],
			"type":"VEC3"
		},
		{
			"bufferView":17,
			"componentType":5126,
			"count":18,
			"type":"VEC3"
		},
		{
			"bufferView":18,
			"componentType":5126,
			"count":18,
			"type":"VEC2"
		},
		{
			"bufferView":19,
			"componentType":5123,
			"count":48,
			"type":"SCALAR"
		}
	],
	"bufferViews":[
		{
			"buffer":0,
			"byteLength":6792,
			"byteOffset":0,
			"target":34962
		},
		{
			"buffer":0,
			"byteLength":6792,
			"byteOffset":6792,
			"target":34962
		},
		{
			"buffer":0,
			"byteLength":4528,
			"byteOffset":13584,
			"target":34962
		},
		{
			"buffer":0,
			"byteLength":3576,
			"byteOffset":18112,
			"target":34963
		},
		{
			"buffer":0,
			"byteLength":5664,
			"byteOffset":21688,
			"target":34962
		},
		{
			"buffer":0,
			"byteLength":5664,
			"byteOffset":27352,
			"target":34962
		},
		{
			"buffer":0,
			"byteLength":3776,
			"byteOffset":33016,
			"target":34962
		},
		{
			"buffer":0,
			"byteLength":2244,
			"byteOffset":36792,
			"target":34963
		},
		{
			"buffer":0,
			"byteLength":15732,
			"byteOffset":39036,
			"target":34962
		},
		{
			"buffer":0,
			"byteLength":15732,
			"byteOffset":54768,
			"target":34962
		},
		{
			"buffer":0,
			"byteLength":10488,
			"byteOffset":70500,
			"target":34962
		},
		{
			"buffer":0,
			"byteLength":8772,
			"byteOffset":80988,
			"target":34963
		},
		{
			"buffer":0,
			"byteLength":11616,
			"byteOffset":89760,
			"target":34962
		},
		{
			"buffer":0,
			"byteLength":11616,
			"byteOffset":101376,
			"target":34962
		},
		{
			"buffer":0,
			"byteLength":7744,
			"byteOffset":112992,
			"target":34962
		},
		{
			"buffer":0,
			"byteLength":5868,
			"byteOffset":120736,
			"target":34963
		},
		{
			"buffer":0,
			"byteLength":216,
			"byteOffset":126604,
			"target":34962
		},
		{
			"buffer":0,
			"byteLength":216,
			"byteOffset":126820,
			"target":34962
		},
		{
			"buffer":0,
			"byteLength":144,
			"byteOffset":127036,
			"target":34962
		},
		{
			"buffer":0,
			"byteLength":96,
			"byteOffset":127180,
			"target":34963
		}
	],
	"buffers":[
		{
			"byteLength":127276,
			"uri":"SIT-90.bin"
		}
	]
}
